# xmcd CD database file
#
# Track frame offsets:
#	150
#	17428
#	36633
#	55278
#	75948
#	93485
#	113813
#	132013
#
# Disc length: 2025 seconds
#
# Revision: 0
# Processed by: cddbd v1.4PL0 Copyright (c) Steve Scherf et al.
# Submitted via: CDex 1.51
#
DISCID=5b07e708
DTITLE=Carlos David - Caras Nuevas
DYEAR=1900
DGENRE=Merengue
TTITLE0=La pastilla
TTITLE1=Lo que me quedo de ti
TTITLE2=Que no vuelva
TTITLE3=Amor de estudiante
TTITLE4=Pegatela
TTITLE5=Para amarte
TTITLE6=Quiero tenerte
TTITLE7=Cuidado
EXTD=
EXTT0=
EXTT1=
EXTT2=
EXTT3=
EXTT4=
EXTT5=
EXTT6=
EXTT7=
PLAYORDER=
